<?xml version="1.0" encoding="UTF-8"?>
<svg width="24px" height="24px" viewBox="0 0 30 30" version="1.1" xmlns="http://www.w3.org/2000/svg" xmlns:xlink="http://www.w3.org/1999/xlink">
    <g id="Symbols" stroke="none" stroke-width="1" fill="none" fill-rule="evenodd">
        <g id="Navigation-Bar-/-Profile-/-Icon" transform="translate(-67.000000, -6.000000)">
            <g id="Profile-Icon" transform="translate(67.000000, 6.000000)">
                <path d="M7.5,23.23 C9.46125,21.32375 12.115,20.15125 15.02875,20.15125 C17.91375,20.15125 20.53875,21.3 22.5,23.17125 C20.53875,25.0775 17.885,26.25 14.97125,26.25 C12.08625,26.25 9.46125,25.10125 7.5,23.23 Z M4.96875,20.03125 C4.20625,18.51375 3.75,16.815 3.75,15 C3.75,8.7825 8.7825,3.75 15,3.75 C21.2175,3.75 26.25,8.7825 26.25,15 C26.25,16.8125 25.79625,18.5125 25.02875,20.02875 M17.651625,9.84835 C19.1160875,11.3128125 19.1160875,13.6871875 17.651625,15.15165 C16.1871625,16.6161125 13.8127875,16.6161125 12.348325,15.15165 C10.8838625,13.6871875 10.8838625,11.3128125 12.348325,9.84835 C13.8127875,8.3838875 16.1871625,8.3838875 17.651625,9.84835" id="Combined-Shape" stroke="#28303A" stroke-width="1.5" stroke-linecap="round" stroke-linejoin="round"></path>
                <polygon id="Path" points="0 0 30 0 30 30 0 30"></polygon>
            </g>
        </g>
    </g>
</svg>
